<?xml version="1.0" encoding="utf-8"?>

<!DOCTYPE svg PUBLIC "-//W3C//DTD SVG 1.1//EN" "http://www.w3.org/Graphics/SVG/1.1/DTD/svg11.dtd">
<!-- Uploaded to: SVG Repo, www.svgrepo.com, Generator: SVG Repo Mixer Tools -->
<svg height="800px" width="800px" version="1.1" id="_x32_" xmlns="http://www.w3.org/2000/svg" xmlns:xlink="http://www.w3.org/1999/xlink" 
	 viewBox="0 0 512 512"  xml:space="preserve">
<style type="text/css">
	.st0{fill:#000000;}
</style>
<g>
	<path class="st0" d="M404.915,363.893c-6.192-17.431-13.981-31.512-22.008-43.929c-6.026-9.312-12.173-17.709-17.921-25.948
		c-8.644-12.385-16.372-24.372-21.995-38.83c-5.61-14.458-9.212-31.491-9.226-54.254c0-3.729,0.557-7.417,1.563-11.14
		c1.762-6.51,4.98-13.106,8.961-19.709c5.967-9.928,13.61-19.769,20.02-29.763c3.199-5.013,6.1-10.08,8.272-15.372
		c2.159-5.278,3.603-10.835,3.603-16.663c0.006-7.656-2.067-14.967-5.676-21.445c-5.431-9.722-14.226-17.63-24.948-23.134
		c-3.928-2.013-8.126-3.702-12.537-5.046V0h-14.776v55.625c-3.198-0.364-6.464-0.556-9.781-0.556c-12.286,0-23.843,2.55-33.856,7.08
		c-7.073,3.205-13.372,7.417-18.61,12.458c-5.238-5.04-11.537-9.252-18.61-12.458c-10.014-4.53-21.571-7.08-33.856-7.08
		c-3.318,0-6.59,0.192-9.788,0.556V0h-14.769v58.665c-8.424,2.563-16.08,6.411-22.564,11.325
		c-6.18,4.689-11.305,10.364-14.921,16.848c-3.616,6.478-5.682,13.789-5.676,21.445c0,4.431,0.841,8.729,2.192,12.848
		c2.378,7.206,6.272,13.948,10.61,20.617c6.516,9.974,14.132,19.822,19.934,29.743c2.9,4.954,5.352,9.901,7.04,14.802
		c1.696,4.908,2.642,9.749,2.642,14.637c0,13.484-1.278,24.968-3.477,35.088c-3.854,17.696-10.484,31.286-18.577,44.254
		c-6.06,9.71-12.981,19.028-20.034,29.2c-10.57,15.24-21.406,32.446-29.452,55.513c-8.054,23.067-13.305,51.883-13.298,90.454v2.796
		l1.841,2.106c0.715,0.834,5.649,6.033,17.564,10.915c11.928,4.894,30.783,9.49,59.48,9.484c7.862,0.02,14.001,1.662,19.809,4.238
		c4.344,1.94,8.491,4.457,12.769,7.259c6.424,4.192,13.14,9.073,21.352,13.007c4.106,1.961,8.59,3.669,13.537,4.861
		C244.688,511.311,250.086,512,256,512c10.51,0.013,19.398-2.212,26.995-5.484c5.702-2.45,10.69-5.444,15.305-8.424
		c6.915-4.49,13.021-8.928,19.452-12.094c3.219-1.59,6.517-2.888,10.093-3.801c3.583-0.914,7.451-1.45,11.875-1.457
		c28.696,0.007,47.552-4.589,59.48-9.484c11.921-4.882,16.848-10.081,17.564-10.915l1.841-2.106v-2.796
		C418.611,416.26,413.193,387.14,404.915,363.893z M390.179,458.778c-10.16,3.616-26.213,7.08-50.459,7.08
		c-10.034-0.02-18.564,2.245-25.876,5.53c-5.497,2.457-10.325,5.431-14.855,8.398c-6.795,4.464-12.941,8.854-19.61,12.027
		c-3.345,1.596-6.815,2.901-10.63,3.828c-3.821,0.927-7.987,1.47-12.749,1.47c-8.464-0.014-15.06-1.69-21.127-4.279
		c-4.543-1.947-8.782-4.45-13.08-7.232c-6.458-4.159-13.014-9.007-20.942-12.941c-3.961-1.96-8.265-3.682-13.014-4.888
		c-4.742-1.219-9.915-1.914-15.558-1.914c-27.12,0-43.982-4.338-53.824-8.378c-4.928-2.014-8.106-3.961-9.967-5.298
		c-0.066-0.047-0.12-0.086-0.179-0.133c0.311-36.068,5.398-62.354,12.795-83.17c5.736-16.114,12.862-29.021,20.491-40.836
		c5.722-8.855,11.736-17.081,17.623-25.511c8.815-12.637,17.366-25.764,23.664-41.95c6.298-16.186,10.245-35.32,10.232-59.652
		c0-5.206-0.775-10.232-2.08-15.041c-2.298-8.43-6.186-16.192-10.576-23.491c-6.597-10.928-14.365-20.908-20.233-30.101
		c-2.934-4.583-5.385-8.954-7.034-12.987c-1.656-4.046-2.497-7.703-2.497-11.027c0.007-4.993,1.312-9.722,3.801-14.2
		c3.716-6.696,10.213-12.769,18.73-17.133c4.748-2.438,10.119-4.312,15.894-5.51h4.623v-0.795c3.172-0.437,6.437-0.696,9.788-0.696
		c10.219,0,19.716,2.14,27.724,5.762c8.007,3.616,14.478,8.715,18.776,14.491L256,98.19l5.96-7.987
		c4.305-5.776,10.776-10.875,18.783-14.491c8-3.623,17.504-5.762,27.724-5.762c3.344,0,6.609,0.238,9.781,0.676v0.814h4.716
		c9.192,1.928,17.325,5.609,23.624,10.405c4.728,3.589,8.43,7.775,10.914,12.238c2.49,4.477,3.795,9.206,3.802,14.2
		c0,2.536-0.484,5.252-1.457,8.199c-1.675,5.166-4.894,10.968-8.928,17.133c-6.04,9.279-13.835,19.325-20.312,30.352
		c-3.232,5.524-6.14,11.319-8.265,17.471c-2.119,6.14-3.458,12.656-3.458,19.491c0,14.425,1.371,27.008,3.815,38.247
		c4.258,19.676,11.842,35.154,20.498,48.982c6.49,10.385,13.564,19.882,20.425,29.79c10.305,14.875,20.18,30.624,27.63,51.936
		c7.206,20.664,12.134,46.678,12.438,82.163C401.477,453.666,397.253,456.249,390.179,458.778z"/>
</g>
</svg>