<?xml version="1.0" encoding="utf-8"?>
<!-- Uploaded to: SVG Repo, www.svgrepo.com, Generator: SVG Repo Mixer Tools -->
<svg width="800px" height="800px" viewBox="0 -0.8 60.998 60.998" xmlns="http://www.w3.org/2000/svg">
  <g id="Suit" transform="translate(-437.589 -260.547)">
    <g id="Group_112" data-name="Group 112">
      <path id="Path_83" data-name="Path 83" d="M463.943,319.677a.988.988,0,0,1-.215-.023l-8.7-1.9a.838.838,0,0,1-.138-.041c-2.228-.837-2.228-3.765-2.228-4.727l.559-36.511a1,1,0,0,1,1-.985h.015a1,1,0,0,1,.985,1.015l-.559,36.5c0,1.622.287,2.549.878,2.818l7.66,1.677,3.916-16.132a1,1,0,1,1,1.943.472l-4.146,17.082A1,1,0,0,1,463.943,319.677Z" fill="#231f20"/>
    </g>
    <g id="Group_113" data-name="Group 113">
      <path id="Path_84" data-name="Path 84" d="M472.168,319.945a1.014,1.014,0,0,1-.488-.126,1,1,0,0,1-.486-.645l-4.079-17.35a1,1,0,1,1,1.947-.458l3.828,16.284,7.66-2.558c.749-.282.9-.577.9-1.844l-.492-36.75a1,1,0,0,1,.986-1.013h.014a1,1,0,0,1,1,.987l.492,36.763c0,1.412-.173,2.968-2.228,3.742l-8.735,2.917A1.01,1.01,0,0,1,472.168,319.945Z" fill="#231f20"/>
    </g>
    <g id="Group_114" data-name="Group 114">
      <path id="Path_85" data-name="Path 85" d="M489.3,309.349c-1.244,0-2.088-.865-2.473-2.59l-5.85-30.083a1,1,0,1,1,1.963-.382l5.845,30.057c.242,1.086.424,1.048.856.95l6.693-.98a1.439,1.439,0,0,0,.258-.082,6,6,0,0,0-.145-.839l-6.721-39.377c-.979-.888-7.332-2.722-8.895-2.87l-5.545-.528-6.22,26.385a1,1,0,0,1-1.947,0l-6.22-26.385-5.545.528c-1.564.148-7.922,1.983-8.9,2.871l-6.711,39.328a6.671,6.671,0,0,0-.154.885,1.914,1.914,0,0,0,.33.1l6.55.954c.506.11.684.148.932-.964l5.84-30.03a1,1,0,1,1,1.963.382l-5.845,30.056c-.458,2.059-1.547,2.9-3.251,2.522l-6.55-.954a2.246,2.246,0,0,1-1.866-1.362,3.672,3.672,0,0,1,.089-1.971l6.733-39.458c.535-2.418,10.548-4.338,10.647-4.347l6.413-.611a1,1,0,0,1,1.068.766l5.446,23.105,5.447-23.105a1,1,0,0,1,1.068-.766l6.413.611c.1.009,10.111,1.929,10.637,4.3l6.752,39.555a3.555,3.555,0,0,1,.079,1.923,2.2,2.2,0,0,1-1.794,1.349l-6.692.98A3.225,3.225,0,0,1,489.3,309.349Z" fill="#231f20"/>
    </g>
    <g id="Group_115" data-name="Group 115">
      <path id="Path_86" data-name="Path 86" d="M469.08,295.51a1.059,1.059,0,1,1-1.06-1.059A1.06,1.06,0,0,1,469.08,295.51Z" fill="#231f20"/>
    </g>
    <g id="Group_116" data-name="Group 116">
      <path id="Path_87" data-name="Path 87" d="M468.194,262.8a24.969,24.969,0,0,1-7.443-1.076.5.5,0,1,1,.323-.946,24.583,24.583,0,0,0,14.042,0,.5.5,0,1,1,.3.954A24.161,24.161,0,0,1,468.194,262.8Z" fill="#231f20"/>
    </g>
    <g id="Group_117" data-name="Group 117">
      <path id="Path_88" data-name="Path 88" d="M478.167,279.706h-3.375a.5.5,0,0,1,0-1h3.375a.5.5,0,0,1,0,1Z" fill="#231f20"/>
    </g>
  </g>
</svg>